<svg xmlns="http://www.w3.org/2000/svg" xml:space="preserve" style="enable-background:new 0 0 850.32 810.24" viewBox="0 0 850.32 810.24"><style>.st0{fill:#fff}.st1{fill:#10a9e5}</style><g id="Layer_10"><path d="M328.96 623.27v-14.5h-16.31v14.5h-3.57v-32.06h3.57v14.36h16.31v-14.36h3.52v32.06h-3.52zM337.53 623.27l8.8-32.06h7.78l8.8 32.06h-3.52l-2.32-8.25h-13.72l-2.32 8.25h-3.5zm11.5-29-4.87 17.56h12.14l-4.87-17.56h-2.4zM380.12 610.07v-3.2h8.85v15.75c-3.89.74-7.37 1.11-10.43 1.11-4.66 0-7.9-1.34-9.71-4.03s-2.71-6.83-2.71-12.44.9-9.76 2.71-12.46 5.01-4.05 9.61-4.05c2.87 0 5.85.31 8.94.93l1.58.28-.14 2.96c-3.83-.65-7.15-.97-9.96-.97-3.55 0-5.95 1.03-7.18 3.08-1.24 2.05-1.85 5.47-1.85 10.24s.62 8.19 1.85 10.24c1.24 2.05 3.61 3.08 7.14 3.08 2.16 0 4.37-.22 6.63-.65v-9.87h-5.33zM395.96 623.27v-32.06h19.51v3.15h-15.94v11.07h13.16v3.1h-13.16v11.58h15.94v3.15h-19.51zM421.59 623.27v-32.06h6.67l12.28 28.91h.97v-28.91h3.52v32.06h-6.53l-12.46-28.91h-.88v28.91h-3.57zM452.91 591.21h11.63c3.18 0 5.57.66 7.16 1.97 1.59 1.31 2.39 3.38 2.39 6.19 0 2.01-.35 3.58-1.04 4.7-.7 1.13-1.72 2.02-3.08 2.66 3.4 1.17 5.1 3.69 5.1 7.55 0 3.21-.85 5.51-2.55 6.9-1.7 1.39-4.15 2.08-7.37 2.08h-12.23v-32.05zm11.49 3.15h-7.92v11.07h8.25c1.98 0 3.42-.47 4.33-1.41s1.37-2.36 1.37-4.26-.49-3.27-1.46-4.12c-.98-.86-2.5-1.28-4.57-1.28zm.37 14.18h-8.29v11.58H465c2.1 0 3.7-.44 4.8-1.32 1.1-.88 1.64-2.43 1.64-4.66 0-1.17-.22-2.16-.67-2.97-.45-.8-1.04-1.37-1.78-1.71-1.36-.61-2.77-.92-4.22-.92zM481.45 623.27v-32.06h19.51v3.15h-15.94v11.07h13.16v3.1h-13.16v11.58h15.94v3.15h-19.51zM510.64 610.99v12.28h-3.57v-32.06h11.86c3.4 0 5.95.79 7.67 2.36 1.71 1.58 2.57 4.03 2.57 7.37 0 4.94-1.96 8.05-5.88 9.31l6.16 13.02h-3.94l-5.79-12.28h-9.08zm8.34-3.15c4.36 0 6.53-2.25 6.53-6.74s-2.19-6.74-6.58-6.74h-8.29v13.48h8.34zM548.31 610.07v-3.2h8.85v15.75c-3.89.74-7.37 1.11-10.43 1.11-4.66 0-7.9-1.34-9.71-4.03-1.81-2.69-2.71-6.83-2.71-12.44s.9-9.76 2.71-12.46c1.81-2.7 5.01-4.05 9.61-4.05 2.87 0 5.85.31 8.94.93l1.58.28-.14 2.96c-3.83-.65-7.15-.97-9.96-.97-3.55 0-5.95 1.03-7.18 3.08-1.24 2.05-1.85 5.47-1.85 10.24s.62 8.19 1.85 10.24c1.24 2.05 3.61 3.08 7.14 3.08 2.16 0 4.37-.22 6.63-.65v-9.87h-5.33zM245.91 670.39l.11-11.53 19.02.18-.32 33.91c-9.17 1.39-16.61 2.05-22.31 2-10.18-.1-17.16-2.88-20.92-8.36-3.76-5.48-5.58-14.14-5.47-25.99.11-11.85 2.18-20.38 6.2-25.6 4.02-5.21 10.8-7.78 20.35-7.69 5.96.06 12.39.79 19.29 2.2l3.45.71-.48 10.28c-7.68-.9-13.97-1.38-18.87-1.43-4.9-.05-8.35.5-10.34 1.63-2 1.13-3.48 3.25-4.43 6.35-.96 3.1-1.47 8.41-1.54 15.94-.07 7.53.81 12.8 2.64 15.83 1.83 3.03 5.66 4.57 11.49 4.62l7.98-.31.12-12.68-5.97-.06zM271.72 694.08l15.32-65.19 25.17.24 14.08 65.47-13.26-.12-2.48-11.84-22.87-.21-2.71 11.79-13.25-.14zm25.5-54.15-6.92 30.97 17.87.17-6.34-31.1-4.61-.04zM335.04 694.67l.62-65.33 22.58.21 11.08 47.76 11.98-47.55 22.58.21-.62 65.33-13.26-.12.48-50.54-1.44-.01-13.23 47.53-13.26-.12-12.33-47.78-1.44-.01-.48 50.54-13.26-.12zM417.47 695.45l.62-65.33 42.27.4-.11 11.53-29.01-.27-.14 15.28 23.25.22-.11 11.34-23.25-.22-.15 15.66 29.01.27-.11 11.53-42.27-.41zM486.48 702.83l.11-11.53c2.56.02 4.42-.44 5.59-1.39 1.16-.95 1.76-2.74 1.78-5.36l.51-53.71 13.16.12-.42 54.28c-.07 6.98-1.66 11.67-4.79 14.08-3.14 2.41-8.45 3.58-15.94 3.51zM515.37 696.38l15.32-65.19 25.17.24 14.08 65.47-13.26-.12-2.48-11.84-22.87-.22-2.71 11.79-13.25-.13zm25.49-54.15-6.92 30.97 17.87.17-6.34-31.1-4.61-.04zM578.68 696.97l.62-65.33 22.58.21 11.08 47.76 11.98-47.54 22.58.21-.62 65.33-13.26-.12.48-50.54-1.44-.01-13.23 47.53-13.26-.13-12.33-47.77-1.44-.01-.48 50.54-13.26-.13z" class="st0"/><path d="m402.93 738.85-19.33-.18.05-5.28 6.43-6.4c2.28-2.3 3.87-4.06 4.77-5.28.9-1.23 1.36-2.54 1.37-3.94.01-1.4-.35-2.39-1.08-2.97-.73-.58-1.78-.87-3.13-.89-2.02-.02-4.22.14-6.6.48l-1.09.12-.27-4.83c2.96-.88 6.02-1.3 9.18-1.27 6.32.06 9.46 2.93 9.4 8.62-.02 2.23-.52 4.15-1.5 5.77-.98 1.62-2.74 3.57-5.29 5.87l-5.24 4.65 12.37.12-.04 5.41zM410.2 712.27c1.97-2.45 4.86-3.66 8.68-3.62 3.82.04 6.69 1.3 8.61 3.79 1.92 2.49 2.85 6.46 2.8 11.93-.05 5.46-1.05 9.37-3 11.71-1.95 2.34-4.85 3.5-8.7 3.46-3.85-.04-6.73-1.25-8.64-3.63-1.9-2.38-2.83-6.3-2.78-11.77.06-5.46 1.06-9.42 3.03-11.87zm13.68 11.89c.04-3.72-.33-6.33-1.1-7.82-.77-1.5-2.08-2.25-3.93-2.27s-3.18.72-3.99 2.22c-.81 1.5-1.24 4.1-1.27 7.8-.04 3.7.35 6.3 1.15 7.78.8 1.48 2.12 2.23 3.95 2.25 1.84.02 3.15-.71 3.95-2.18.79-1.46 1.21-4.06 1.24-7.78zM453.5 739.32l-19.33-.18.05-5.28 6.43-6.4c2.28-2.3 3.87-4.06 4.77-5.28.9-1.23 1.36-2.54 1.37-3.94.01-1.4-.35-2.39-1.08-2.97-.73-.58-1.77-.87-3.13-.89-2.02-.02-4.22.14-6.6.48l-1.08.12-.27-4.83c2.96-.88 6.02-1.3 9.18-1.27 6.32.06 9.46 2.93 9.4 8.62-.02 2.23-.52 4.15-1.5 5.77-.98 1.62-2.74 3.57-5.29 5.87l-5.24 4.65 12.37.12-.05 5.41zM459.6 710.66c2.78-1.06 5.88-1.57 9.3-1.54 3.42.03 5.9.71 7.46 2.04 1.55 1.32 2.32 3.43 2.29 6.32-.03 2.89-1.21 5.09-3.54 6.61 1.44.8 2.46 1.62 3.07 2.47s.91 2.19.89 4.03c-.03 3.22-.86 5.61-2.48 7.16-1.62 1.55-4.21 2.31-7.77 2.28-2.62-.02-5.37-.44-8.25-1.25l-1.44-.38.36-4.74c3.37.6 6.19.92 8.48.94 3.1.03 4.66-1.28 4.69-3.93.01-1.11-.38-2-1.17-2.68-.79-.67-1.84-1.01-3.13-1.02l-6.01-.06.05-5.15 6.01.06c.99.01 1.88-.4 2.65-1.24.78-.83 1.17-1.76 1.18-2.79.02-2.14-1.46-3.22-4.44-3.25-2.08-.02-4.29.17-6.64.57l-1.17.17-.39-4.62z" class="st1"/></g><path id="Layer_11" d="m263.16 259.79 166.48-97.05 163.52 97.71-.1 111.39-161.96 92.61-167.95-94z" style="fill:#bababa"/><path id="Layer_9" d="M428.15 98.45v63.41l-164.99 97.93v106.66l103.33 62.67 2-132.67-27.33 14.67-2.67-47.33 92.63-48.05-2.97 347.53-202.7-125.33v-224z" class="st1"/><path id="Layer_6" d="m431.16 465.36.01-250.91-90.66 52.65-.02 44.02 25.34-14.67.66 132.67-103.33-59.33v-110l168-97.93" style="fill:none;stroke:#1c1c1c;stroke-width:14;stroke-miterlimit:10"/><path id="Layer_7" d="m431.12 98.45 202.71 114.67v226l-202.7 119.33-.03-93.41 162.06-93.25V260.45l-75.33-39.33.03 42.34-86.74-47.72z" style="fill:#10a9e5;stroke:#1c1c1c;stroke-width:8;stroke-miterlimit:10"/><path id="Layer_12" d="m431.1 94.28 203.05 121.66v224l-202.7 125.33-206-127.33v-224z" style="fill:none;stroke:#1c1c1c;stroke-width:20;stroke-miterlimit:10"/><path id="Layer_13" d="M427.16 496.62v-272.5l-26.49 16-1.84 246z" class="st1"/></svg>