<?xml version="1.0" encoding="UTF-8" standalone="no"?>
<svg
   viewBox="0 0 432.07 656.89295"
   xml:space="preserve"
   version="1.1"
   id="svg15"
   sodipodi:docname="gamejam2022.svg"
   width="432.07001"
   height="656.89294"
   inkscape:version="1.2.2 (b0a8486541, 2022-12-01)"
   xmlns:inkscape="http://www.inkscape.org/namespaces/inkscape"
   xmlns:sodipodi="http://sodipodi.sourceforge.net/DTD/sodipodi-0.dtd"
   xmlns="http://www.w3.org/2000/svg"
   xmlns:svg="http://www.w3.org/2000/svg"><defs
   id="defs19" /><sodipodi:namedview
   id="namedview17"
   pagecolor="#505050"
   bordercolor="#eeeeee"
   borderopacity="1"
   inkscape:showpageshadow="0"
   inkscape:pageopacity="0"
   inkscape:pagecheckerboard="0"
   inkscape:deskcolor="#505050"
   showgrid="false"
   inkscape:zoom="1.2366706"
   inkscape:cx="210.24191"
   inkscape:cy="322.64048"
   inkscape:window-width="3840"
   inkscape:window-height="1529"
   inkscape:window-x="-8"
   inkscape:window-y="1072"
   inkscape:window-maximized="1"
   inkscape:current-layer="svg15" />
  <style
   id="style2">
    .st1{fill:#10a9e5}
  </style>
  <g
   id="Layer_10"
   transform="translate(-215.45,-82.667029)">
    <path
   d="m 328.96,623.27 v -14.5 h -16.31 v 14.5 h -3.57 v -32.06 h 3.57 v 14.36 h 16.31 v -14.36 h 3.52 v 32.06 z m 8.57,0 8.8,-32.06 h 7.78 l 8.8,32.06 h -3.52 l -2.32,-8.25 h -13.72 l -2.32,8.25 z m 11.5,-29 -4.87,17.56 h 12.14 l -4.87,-17.56 z m 31.09,15.8 v -3.2 h 8.85 v 15.75 c -3.89,0.74 -7.37,1.11 -10.43,1.11 -4.66,0 -7.9,-1.34 -9.71,-4.03 -1.81,-2.69 -2.71,-6.83 -2.71,-12.44 0,-5.61 0.9,-9.76 2.71,-12.46 1.81,-2.7 5.01,-4.05 9.61,-4.05 2.87,0 5.85,0.31 8.94,0.93 l 1.58,0.28 -0.14,2.96 c -3.83,-0.65 -7.15,-0.97 -9.96,-0.97 -3.55,0 -5.95,1.03 -7.18,3.08 -1.24,2.05 -1.85,5.47 -1.85,10.24 0,4.77 0.62,8.19 1.85,10.24 1.24,2.05 3.61,3.08 7.14,3.08 2.16,0 4.37,-0.22 6.63,-0.65 v -9.87 z m 15.84,13.2 v -32.06 h 19.51 v 3.15 h -15.94 v 11.07 h 13.16 v 3.1 h -13.16 v 11.58 h 15.94 v 3.15 h -19.51 z m 25.63,0 v -32.06 h 6.67 l 12.28,28.91 h 0.97 v -28.91 h 3.52 v 32.06 h -6.53 l -12.46,-28.91 h -0.88 v 28.91 z m 31.32,-32.06 h 11.63 c 3.18,0 5.57,0.66 7.16,1.97 1.59,1.31 2.39,3.38 2.39,6.19 0,2.01 -0.35,3.58 -1.04,4.7 -0.7,1.13 -1.72,2.02 -3.08,2.66 3.4,1.17 5.1,3.69 5.1,7.55 0,3.21 -0.85,5.51 -2.55,6.9 -1.7,1.39 -4.15,2.08 -7.37,2.08 h -12.23 v -32.05 z m 11.49,3.15 h -7.92 v 11.07 h 8.25 c 1.98,0 3.42,-0.47 4.33,-1.41 0.91,-0.94 1.37,-2.36 1.37,-4.26 0,-1.9 -0.49,-3.27 -1.46,-4.12 -0.98,-0.86 -2.5,-1.28 -4.57,-1.28 z m 0.37,14.18 h -8.29 v 11.58 H 465 c 2.1,0 3.7,-0.44 4.8,-1.32 1.1,-0.88 1.64,-2.43 1.64,-4.66 0,-1.17 -0.22,-2.16 -0.67,-2.97 -0.45,-0.8 -1.04,-1.37 -1.78,-1.71 -1.36,-0.61 -2.77,-0.92 -4.22,-0.92 z m 16.68,14.73 v -32.06 h 19.51 v 3.15 h -15.94 v 11.07 h 13.16 v 3.1 h -13.16 v 11.58 h 15.94 v 3.15 h -19.51 z m 29.19,-12.28 v 12.28 h -3.57 v -32.06 h 11.86 c 3.4,0 5.95,0.79 7.67,2.36 1.71,1.58 2.57,4.03 2.57,7.37 0,4.94 -1.96,8.05 -5.88,9.31 l 6.16,13.02 h -3.94 l -5.79,-12.28 z m 8.34,-3.15 c 4.36,0 6.53,-2.25 6.53,-6.74 0,-4.49 -2.19,-6.74 -6.58,-6.74 h -8.29 v 13.48 z m 29.33,2.23 v -3.2 h 8.85 v 15.75 c -3.89,0.74 -7.37,1.11 -10.43,1.11 -4.66,0 -7.9,-1.34 -9.71,-4.03 -1.81,-2.69 -2.71,-6.83 -2.71,-12.44 0,-5.61 0.9,-9.76 2.71,-12.46 1.81,-2.7 5.01,-4.05 9.61,-4.05 2.87,0 5.85,0.31 8.94,0.93 l 1.58,0.28 -0.14,2.96 c -3.83,-0.65 -7.15,-0.97 -9.96,-0.97 -3.55,0 -5.95,1.03 -7.18,3.08 -1.24,2.05 -1.85,5.47 -1.85,10.24 0,4.77 0.62,8.19 1.85,10.24 1.24,2.05 3.61,3.08 7.14,3.08 2.16,0 4.37,-0.22 6.63,-0.65 v -9.87 z m -302.4,60.32 0.11,-11.53 19.02,0.18 -0.32,33.91 c -9.17,1.39 -16.61,2.05 -22.31,2 -10.18,-0.1 -17.16,-2.88 -20.92,-8.36 -3.76,-5.48 -5.58,-14.14 -5.47,-25.99 0.11,-11.85 2.18,-20.38 6.2,-25.6 4.02,-5.21 10.8,-7.78 20.35,-7.69 5.96,0.06 12.39,0.79 19.29,2.2 l 3.45,0.71 -0.48,10.28 c -7.68,-0.9 -13.97,-1.38 -18.87,-1.43 -4.9,-0.05 -8.35,0.5 -10.34,1.63 -2,1.13 -3.48,3.25 -4.43,6.35 -0.96,3.1 -1.47,8.41 -1.54,15.94 -0.07,7.53 0.81,12.8 2.64,15.83 1.83,3.03 5.66,4.57 11.49,4.62 l 7.98,-0.31 0.12,-12.68 z m 25.81,23.69 15.32,-65.19 25.17,0.24 14.08,65.47 -13.26,-0.12 -2.48,-11.84 -22.87,-0.21 -2.71,11.79 z m 25.5,-54.15 -6.92,30.97 17.87,0.17 -6.34,-31.1 z m 37.82,54.74 0.62,-65.33 22.58,0.21 11.08,47.76 11.98,-47.55 22.58,0.21 -0.62,65.33 -13.26,-0.12 0.48,-50.54 -1.44,-0.01 -13.23,47.53 -13.26,-0.12 -12.33,-47.78 -1.44,-0.01 -0.48,50.54 z m 82.43,0.78 0.62,-65.33 42.27,0.4 -0.11,11.53 -29.01,-0.27 -0.14,15.28 23.25,0.22 -0.11,11.34 -23.25,-0.22 -0.15,15.66 29.01,0.27 -0.11,11.53 z m 69.01,7.38 0.11,-11.53 c 2.56,0.02 4.42,-0.44 5.59,-1.39 1.16,-0.95 1.76,-2.74 1.78,-5.36 l 0.51,-53.71 13.16,0.12 -0.42,54.28 c -0.07,6.98 -1.66,11.67 -4.79,14.08 -3.14,2.41 -8.45,3.58 -15.94,3.51 z m 28.89,-6.45 15.32,-65.19 25.17,0.24 14.08,65.47 -13.26,-0.12 -2.48,-11.84 -22.87,-0.22 -2.71,11.79 z m 25.49,-54.15 -6.92,30.97 17.87,0.17 -6.34,-31.1 z m 37.82,54.74 0.62,-65.33 22.58,0.21 11.08,47.76 11.98,-47.54 22.58,0.21 -0.62,65.33 -13.26,-0.12 0.48,-50.54 -1.44,-0.01 -13.23,47.53 -13.26,-0.13 -12.33,-47.77 -1.44,-0.01 -0.48,50.54 z"
   style="fill:#ffffff"
   id="path4" />
    <path
   class="st1"
   d="m 402.93,738.85 -19.33,-0.18 0.05,-5.28 6.43,-6.4 c 2.28,-2.3 3.87,-4.06 4.77,-5.28 0.9,-1.23 1.36,-2.54 1.37,-3.94 0.01,-1.4 -0.35,-2.39 -1.08,-2.97 -0.73,-0.58 -1.78,-0.87 -3.13,-0.89 -2.02,-0.02 -4.22,0.14 -6.6,0.48 l -1.09,0.12 -0.27,-4.83 c 2.96,-0.88 6.02,-1.3 9.18,-1.27 6.32,0.06 9.46,2.93 9.4,8.62 -0.02,2.23 -0.52,4.15 -1.5,5.77 -0.98,1.62 -2.74,3.57 -5.29,5.87 l -5.24,4.65 12.37,0.12 z m 7.27,-26.58 c 1.97,-2.45 4.86,-3.66 8.68,-3.62 3.82,0.04 6.69,1.3 8.61,3.79 1.92,2.49 2.85,6.46 2.8,11.93 -0.05,5.46 -1.05,9.37 -3,11.71 -1.95,2.34 -4.85,3.5 -8.7,3.46 -3.85,-0.04 -6.73,-1.25 -8.64,-3.63 -1.9,-2.38 -2.83,-6.3 -2.78,-11.77 0.06,-5.46 1.06,-9.42 3.03,-11.87 z m 13.68,11.89 c 0.04,-3.72 -0.33,-6.33 -1.1,-7.82 -0.77,-1.5 -2.08,-2.25 -3.93,-2.27 -1.85,-0.02 -3.18,0.72 -3.99,2.22 -0.81,1.5 -1.24,4.1 -1.27,7.8 -0.04,3.7 0.35,6.3 1.15,7.78 0.8,1.48 2.12,2.23 3.95,2.25 1.84,0.02 3.15,-0.71 3.95,-2.18 0.79,-1.46 1.21,-4.06 1.24,-7.78 z m 29.62,15.16 -19.33,-0.18 0.05,-5.28 6.43,-6.4 c 2.28,-2.3 3.87,-4.06 4.77,-5.28 0.9,-1.23 1.36,-2.54 1.37,-3.94 0.01,-1.4 -0.35,-2.39 -1.08,-2.97 -0.73,-0.58 -1.77,-0.87 -3.13,-0.89 -2.02,-0.02 -4.22,0.14 -6.6,0.48 l -1.08,0.12 -0.27,-4.83 c 2.96,-0.88 6.02,-1.3 9.18,-1.27 6.32,0.06 9.46,2.93 9.4,8.62 -0.02,2.23 -0.52,4.15 -1.5,5.77 -0.98,1.62 -2.74,3.57 -5.29,5.87 l -5.24,4.65 12.37,0.12 z m 25.29,0.24 -19.33,-0.18 0.05,-5.28 6.43,-6.4 c 2.28,-2.3 3.87,-4.06 4.77,-5.28 0.9,-1.22 1.36,-2.54 1.37,-3.94 0.01,-1.4 -0.35,-2.39 -1.08,-2.97 -0.73,-0.58 -1.77,-0.87 -3.13,-0.89 -2.02,-0.02 -4.22,0.14 -6.6,0.48 l -1.08,0.12 -0.27,-4.83 c 2.96,-0.88 6.02,-1.3 9.18,-1.27 6.32,0.06 9.46,2.93 9.4,8.62 -0.02,2.23 -0.52,4.15 -1.5,5.77 -0.98,1.62 -2.74,3.57 -5.29,5.87 l -5.24,4.65 12.37,0.12 z"
   id="path6" />
  </g>
  <path
   style="fill:#bababa"
   d="m 47.71,177.12297 166.48,-97.049999 163.52,97.709999 -0.1,111.39 -161.96,92.61 -167.95,-94 z"
   id="Layer_11" />
  <path
   class="st1"
   d="m 212.7,15.782971 v 63.41 L 47.71,177.12297 v 106.66 l 103.33,62.67 2,-132.67 -27.33,14.67 -2.67,-47.33 92.63,-48.05 -2.97,347.53 -202.7,-125.33 v -224 z"
   id="Layer_9" />
  <path
   style="fill:none;stroke:#1c1c1c;stroke-width:14;stroke-miterlimit:10"
   d="m 215.71,382.69297 0.01,-250.91 -90.66,52.65 -0.02,44.02 25.34,-14.67 0.66,132.67 -103.33,-59.33 v -110 l 168,-97.929999"
   id="Layer_6" />
  <path
   style="fill:#10a9e5;stroke:#1c1c1c;stroke-width:8;stroke-miterlimit:10"
   d="M 215.67,15.782971 418.38,130.45297 v 226 l -202.7,119.33 -0.03,-93.41 162.06,-93.25 v -111.34 l -75.33,-39.33 0.03,42.34 -86.74,-47.72 z"
   id="Layer_7" />
  <path
   style="fill:none;stroke:#1c1c1c;stroke-width:20;stroke-miterlimit:10"
   d="M 215.65,11.612971 418.7,133.27297 v 224 l -202.7,125.33 -206,-127.33 v -224 z"
   id="Layer_12" />
  <path
   class="st1"
   d="m 211.71,413.95297 v -272.5 l -26.49,16 -1.84,246 z"
   id="Layer_13" />
</svg>
