<svg xmlns="http://www.w3.org/2000/svg" id="Layer_1" version="1.1" viewBox="0 0 668.95 149.26"><defs><style>.st0{fill:#474747}.st1{fill:#828282}</style></defs><path d="M0 90V4.69h20.33c9.96 0 17.7 3.12 23.2 9.35 5.51 6.23 8.26 14.99 8.26 26.28v14.3c0 11.29-2.79 20.01-8.38 26.16-5.59 6.15-13.69 9.23-24.32 9.23H0Zm10.71-76.11V80.8h8.61c7.54 0 13.05-2.16 16.52-6.48 3.48-4.32 5.25-10.72 5.33-19.21V39.98c0-8.99-1.73-15.59-5.19-19.79s-8.68-6.3-15.67-6.3H10.7ZM79.04 9.79c0 1.76-.49 3.22-1.46 4.39-.98 1.17-2.46 1.76-4.45 1.76s-3.42-.59-4.39-1.76c-.98-1.17-1.46-2.64-1.46-4.39s.49-3.24 1.46-4.45c.98-1.21 2.44-1.82 4.39-1.82s3.43.62 4.42 1.85 1.49 2.71 1.49 4.42ZM78.21 90H67.84V26.6h10.37V90ZM92.45 55.43c0-9.88 1.8-17.35 5.39-22.41 3.59-5.06 8.85-7.59 15.76-7.59 6.45 0 11.35 2.75 14.71 8.26l.53-7.09h9.38v63.98c0 7.85-2.01 13.88-6.04 18.08-4.02 4.2-9.63 6.3-16.82 6.3-3.13 0-6.63-.77-10.52-2.31-3.89-1.54-6.81-3.45-8.76-5.71l4.22-7.15c4.3 4.22 9.04 6.33 14.24 6.33 8.63 0 13.07-4.71 13.3-14.12v-8.26c-3.36 4.96-8.12 7.44-14.3 7.44-6.56 0-11.68-2.47-15.35-7.41-3.67-4.94-5.59-12.04-5.74-21.3v-7.03Zm10.37 5.88c0 7.1 1.04 12.32 3.13 15.66s5.52 5 10.28 5c5.16 0 9.02-2.63 11.6-7.9V42.41c-2.7-5.19-6.52-7.78-11.48-7.78s-8.2 1.67-10.31 5c-2.11 3.34-3.18 8.46-3.22 15.36v6.32ZM165.64 9.79c0 1.76-.49 3.22-1.46 4.39-.98 1.17-2.46 1.76-4.45 1.76s-3.42-.59-4.39-1.76c-.98-1.17-1.46-2.64-1.46-4.39s.49-3.24 1.46-4.45c.98-1.21 2.44-1.82 4.39-1.82s3.43.62 4.42 1.85 1.49 2.71 1.49 4.42ZM164.82 90h-10.37V26.6h10.37V90ZM194.7 11.25V26.6h9.55v8.38h-9.55v39.37c0 2.5.41 4.4 1.23 5.69s2.23 1.94 4.22 1.94c1.37 0 2.75-.23 4.16-.7l-.12 8.74c-2.34.78-4.75 1.16-7.21 1.16-4.1 0-7.23-1.46-9.38-4.39-2.15-2.93-3.22-7.07-3.22-12.42V34.99h-9.67v-8.38h9.67V11.26h10.31ZM249.19 90c-.62-1.37-1.08-3.67-1.35-6.91-3.67 5.39-8.36 8.09-14.06 8.09s-10.22-1.61-13.45-4.83-4.83-7.76-4.83-13.62c0-6.45 2.19-11.56 6.56-15.35 4.37-3.79 10.37-5.72 17.99-5.8h7.62v-6.74c0-3.79-.84-6.48-2.52-8.09-1.68-1.6-4.24-2.4-7.68-2.4-3.13 0-5.66.93-7.62 2.78-1.95 1.86-2.93 4.21-2.93 7.06h-10.37c0-3.24.96-6.34 2.87-9.29 1.91-2.95 4.49-5.26 7.73-6.94 3.24-1.68 6.86-2.52 10.84-2.52 6.48 0 11.42 1.61 14.79 4.83 3.38 3.22 5.11 7.92 5.19 14.09v31.99c.04 4.88.7 9.12 1.99 12.71V90h-10.78Zm-13.83-8.26c2.54 0 4.96-.7 7.27-2.11 2.3-1.41 3.98-3.16 5.04-5.27V59.24h-5.86c-4.92.08-8.81 1.18-11.66 3.31-2.85 2.13-4.28 5.11-4.28 8.94 0 3.59.72 6.2 2.17 7.82 1.44 1.62 3.89 2.43 7.32 2.43ZM285.23 90h-10.37V0h10.37v90ZM344.29 4.69l22.27 69.61 22.27-69.61h13.83V90h-10.72V56.78l1-33.28L370.62 90h-8.2l-22.21-66.27 1 33.05V90h-10.72V4.69h13.83ZM442.32 91.17c-7.89 0-13.95-2.35-18.16-7.06-4.22-4.71-6.37-11.61-6.45-20.71v-7.68c0-9.45 2.06-16.87 6.18-22.24 4.12-5.37 9.87-8.06 17.26-8.06s12.97 2.36 16.64 7.09 5.55 12.09 5.62 22.09v6.8h-35.39v1.46c0 6.8 1.28 11.74 3.84 14.82 2.56 3.09 6.24 4.63 11.04 4.63 3.05 0 5.73-.58 8.06-1.73 2.32-1.15 4.5-2.98 6.53-5.48l5.39 6.56c-4.49 6.33-11.35 9.49-20.57 9.49Zm-1.18-56.83c-4.3 0-7.48 1.47-9.55 4.42-2.07 2.95-3.24 7.53-3.52 13.74h24.96v-1.41c-.27-6.01-1.36-10.31-3.25-12.89-1.9-2.58-4.78-3.87-8.64-3.87ZM473.66 55.43c0-9.76 1.83-17.21 5.48-22.32 3.65-5.12 8.9-7.68 15.73-7.68 6.05 0 10.78 2.46 14.18 7.38V0h10.37v90h-9.49l-.53-6.8c-3.4 5.31-8.26 7.97-14.59 7.97s-11.71-2.55-15.44-7.65c-3.73-5.1-5.63-12.29-5.71-21.59v-6.5Zm10.38 5.88c0 7.1 1.05 12.32 3.16 15.66s5.55 5 10.31 5c5.16 0 9-2.59 11.54-7.78V42.24c-2.66-5.07-6.48-7.61-11.48-7.61s-8.2 1.67-10.31 5c-2.11 3.34-3.18 8.46-3.22 15.36v6.32ZM547.38 9.79c0 1.76-.49 3.22-1.46 4.39-.98 1.17-2.46 1.76-4.45 1.76s-3.42-.59-4.39-1.76c-.98-1.17-1.46-2.64-1.46-4.39s.49-3.24 1.46-4.45c.98-1.21 2.44-1.82 4.39-1.82s3.43.62 4.42 1.85 1.49 2.71 1.49 4.42ZM546.55 90h-10.37V26.6h10.37V90ZM595.48 90c-.62-1.37-1.08-3.67-1.35-6.91-3.67 5.39-8.36 8.09-14.06 8.09s-10.22-1.61-13.45-4.83-4.83-7.76-4.83-13.62c0-6.45 2.19-11.56 6.56-15.35 4.37-3.79 10.37-5.72 17.99-5.8h7.62v-6.74c0-3.79-.84-6.48-2.52-8.09-1.68-1.6-4.24-2.4-7.68-2.4-3.13 0-5.66.93-7.62 2.78-1.95 1.86-2.93 4.21-2.93 7.06h-10.37c0-3.24.96-6.34 2.87-9.29 1.91-2.95 4.49-5.26 7.73-6.94 3.24-1.68 6.86-2.52 10.84-2.52 6.48 0 11.42 1.61 14.79 4.83 3.38 3.22 5.11 7.92 5.19 14.09v31.99c.04 4.88.7 9.12 1.99 12.71V90h-10.78Zm-13.83-8.26c2.54 0 4.96-.7 7.27-2.11 2.3-1.41 3.98-3.16 5.04-5.27V59.24h-5.86c-4.92.08-8.81 1.18-11.66 3.31-2.85 2.13-4.28 5.11-4.28 8.94 0 3.59.72 6.2 2.17 7.82 1.44 1.62 3.89 2.43 7.32 2.43Z" class="st1"/><path d="M185.49 135.12c-.9 4.63-2.61 8.12-5.13 10.49s-5.75 3.5-9.7 3.4c-3.03-.08-5.44-1.14-7.25-3.19s-2.87-4.94-3.18-8.67l-.06-1.67c-.02-1.33.06-2.64.23-3.93l1.46-9.14c.84-5.41 2.65-9.66 5.43-12.76s6.27-4.59 10.47-4.5c3.63.1 6.36 1.37 8.19 3.81s2.62 5.83 2.39 10.17h-3.37c.16-3.69-.4-6.4-1.66-8.13s-3.18-2.62-5.76-2.68c-3.2-.1-5.88 1.07-8.04 3.52s-3.6 6-4.32 10.66l-1.49 9.7-.18 2.4c-.12 2.05.08 3.96.59 5.74s1.34 3.13 2.49 4.07 2.58 1.44 4.28 1.49c2.91.14 5.28-.61 7.12-2.24s3.26-4.47 4.28-8.51l3.19-.03ZM212.59 136.5h-15.44l-5.62 11.92h-3.57l20.6-42.66h3.11l5.77 42.66h-3.34l-1.49-11.92Zm-13.98-3.13h13.56l-2.81-22.73-10.75 22.73ZM235.5 105.77l6.04 37.35 19.04-37.35h4.45l-7.41 42.66h-3.34l3.22-18.57 3.43-18.02-18.9 36.59h-2.55l-6.21-36.83-2.9 18.31-3.22 18.52h-3.34l7.41-42.66h4.28ZM273.96 131.08l-3.02 17.34h-3.34l7.41-42.66 11.84.03c3.42.12 5.99 1.3 7.72 3.56s2.43 5.24 2.09 8.95c-.35 3.95-1.75 7.07-4.19 9.36s-5.62 3.44-9.55 3.44l-8.96-.03Zm.53-3.13 8.58.06c2.81 0 5.15-.87 7-2.61s2.95-4.09 3.28-7.06c.31-2.75-.12-4.98-1.29-6.68s-2.95-2.6-5.33-2.7l-8.94-.03-3.31 19.01ZM330.95 105.77l-5.13 30.06c-.59 4.22-2.16 7.5-4.72 9.86s-5.77 3.47-9.64 3.35c-2.42-.04-4.47-.61-6.14-1.71s-2.86-2.65-3.57-4.63-.92-4.26-.63-6.84l5.13-30.09h3.31l-5.1 30.12c-.35 3.12.1 5.56 1.35 7.29s3.21 2.65 5.89 2.72c2.95.12 5.37-.71 7.25-2.49s3.06-4.29 3.53-7.53l5.1-30.12h3.37ZM354.29 137.7c.25-2.07-.15-3.83-1.2-5.27s-3.13-2.79-6.23-4.03-5.4-2.68-6.9-4.32c-1.89-2.05-2.71-4.59-2.46-7.62.25-3.28 1.63-6 4.13-8.16s5.53-3.2 9.08-3.12c3.36.08 5.98 1.32 7.87 3.74s2.66 5.42 2.33 9.04h-3.34c.27-2.83-.21-5.12-1.46-6.87s-3.12-2.66-5.62-2.74c-2.6-.04-4.79.7-6.58 2.23s-2.81 3.47-3.06 5.83c-.21 1.93.24 3.6 1.36 5.01s3.1 2.66 5.92 3.75 4.98 2.35 6.46 3.78c2.34 2.25 3.37 5.15 3.08 8.7-.29 3.4-1.71 6.17-4.26 8.31s-5.64 3.17-9.27 3.09-6.48-1.31-8.55-3.71-2.93-5.42-2.58-9.1h3.28c-.27 2.87.3 5.19 1.73 6.94s3.53 2.68 6.3 2.75c2.6.04 4.83-.68 6.71-2.17s2.97-3.51 3.28-6.06ZM402.55 148.42h-3.37l3.57-20.42h-19.37l-3.54 20.42h-3.34l7.41-42.66h3.34l-3.34 19.13h19.37l3.31-19.13h3.37l-7.41 42.66ZM434.02 136.5h-15.44l-5.62 11.92h-3.57l20.6-42.66h3.11l5.77 42.66h-3.34l-1.49-11.92Zm-13.97-3.13h13.56l-2.81-22.73-10.75 22.73ZM471.58 143.47c-1.45 1.78-3.32 3.15-5.61 4.13s-4.75 1.45-7.37 1.41c-3.48-.04-6.2-1.23-8.17-3.56s-3.02-5.5-3.13-9.51c-.04-1.37.03-2.73.21-4.1l1.7-10.66c.9-5.1 2.71-9.06 5.42-11.89s6.18-4.2 10.4-4.1c3.5.08 6.2 1.23 8.1 3.46s2.79 5.29 2.65 9.2l-3.28-.03c.04-3.14-.6-5.49-1.92-7.05s-3.23-2.36-5.73-2.42c-3.2-.1-5.87.96-8 3.18s-3.57 5.46-4.34 9.74l-1.67 10.61a26.64 26.64 0 0 0-.23 3.13c-.06 3.36.62 6 2.04 7.92s3.45 2.91 6.11 2.94c3.52.08 6.67-1.09 9.46-3.52l1.96-11.1h-9.08l.59-3.13h12.39l-2.49 15.35ZM503.02 128h-16.05l-3.02 17.31h18.49l-.56 3.11h-21.77l7.38-42.66h21.65l-.56 3.16h-18.31l-2.78 15.97h16.08l-.56 3.11ZM535.42 148.42h-3.22l-13.21-36.39-6.33 36.39h-3.37l7.41-42.66h3.25l13.24 36.45 6.33-36.45h3.31l-7.41 42.66ZM545.47 148.42l7.38-42.66 10.28.03c3.32.08 5.84 1.07 7.57 2.97s2.44 4.55 2.12 7.92c-.21 2.29-.95 4.23-2.2 5.84s-2.91 2.86-4.98 3.74c1.72.64 3.02 1.86 3.9 3.65s1.22 3.87 1.03 6.25c-.31 3.75-1.65 6.73-4 8.94s-5.32 3.31-8.89 3.31h-12.22Zm6.85-20.47-3.02 17.4 8.38.03c2.64 0 4.81-.83 6.53-2.49s2.74-3.88 3.08-6.66c.25-2.41-.13-4.35-1.16-5.84-1.03-1.49-2.63-2.29-4.82-2.41l-8.99-.03Zm.53-3.08 7.38.06c2.52 0 4.62-.73 6.3-2.2s2.66-3.52 2.93-6.15c.25-2.36-.15-4.2-1.22-5.52s-2.8-2.02-5.2-2.09l-7.41-.03-2.78 15.94ZM599.84 128h-16.05l-3.02 17.31h18.49l-.56 3.11h-21.77l7.38-42.66h21.65l-.56 3.16h-18.31l-2.78 15.97h16.08l-.56 3.11ZM622.17 130.67h-9.67l-3.08 17.75h-3.37l7.41-42.66 11.13.03c3.42.12 6.03 1.29 7.82 3.52s2.51 5.16 2.14 8.79c-.27 2.85-1.22 5.32-2.84 7.4s-3.71 3.58-6.27 4.5l5.51 18.05-.03.38h-3.57l-5.19-17.75Zm-9.14-3.1 8.47.06c2.66-.04 4.86-.95 6.61-2.74s2.79-4.06 3.12-6.81c.29-2.66-.14-4.81-1.3-6.46s-2.96-2.53-5.41-2.65l-8.23-.03-3.25 18.63ZM664.74 143.47c-1.45 1.78-3.32 3.15-5.61 4.13s-4.75 1.45-7.37 1.41c-3.48-.04-6.2-1.23-8.17-3.56s-3.02-5.5-3.13-9.51c-.04-1.37.03-2.73.21-4.1l1.7-10.66c.9-5.1 2.71-9.06 5.42-11.89s6.18-4.2 10.4-4.1c3.5.08 6.2 1.23 8.1 3.46s2.79 5.29 2.65 9.2l-3.28-.03c.04-3.14-.6-5.49-1.92-7.05s-3.23-2.36-5.73-2.42c-3.2-.1-5.87.96-8 3.18s-3.57 5.46-4.34 9.74L644 131.88a26.64 26.64 0 0 0-.23 3.13c-.06 3.36.62 6 2.04 7.92s3.45 2.91 6.11 2.94c3.52.08 6.67-1.09 9.46-3.52l1.96-11.1h-9.08l.59-3.13h12.39l-2.49 15.35Z" class="st0"/></svg>