<svg xmlns="http://www.w3.org/2000/svg" id="Ebene_1" version="1.1" viewBox="0 0 769.89 208.98"><defs><style>.st0{fill:#231f20}.st1{fill:#c4161c}</style></defs><path d="M45.32 0C20.33 0 0 20.33 0 45.33v118.44c0 24.99 20.33 45.32 45.32 45.32h253.97c24.99 0 45.32-20.33 45.32-45.32V45.33c.01-25-20.33-45.33-45.32-45.33H45.32ZM2.47 163.77V45.33c0-23.64 19.23-42.86 42.85-42.86h253.97c23.63 0 42.86 19.22 42.86 42.85v118.44c0 23.63-19.23 42.86-42.86 42.86H45.32c-23.63 0-42.86-19.23-42.86-42.86" class="st0"/><path d="M44.47 107.91h120.35V94.85H44.47v-5.23c0-18.1 13.62-31.16 30.23-31.16h90.12V45.4H74.7c-24.07 0-43.29 18.29-43.29 44.22v49.82h13.06v-31.53ZM193.38 56.97V17.22h-13.06v121.66h13.06V82.72c2.43-14 13.62-24.26 29.49-24.26h47.77c16.79 0 30.23 13.62 30.23 30.23v50.2h13.06v-50.2c0-23.88-19.23-43.29-43.29-43.29h-47.77c-11.94 0-21.83 4.47-29.49 11.57" class="st1"/><path d="M43.59 164.86c3.39 0 6.03 1.14 7.91 3.42 1.89 2.28 2.83 5.06 2.83 8.33s-.94 6.05-2.83 8.32c-1.88 2.28-4.52 3.43-7.91 3.43s-6.03-1.15-7.92-3.43c-1.88-2.27-2.83-5.05-2.83-8.32s.95-6.04 2.83-8.33c1.89-2.28 4.53-3.42 7.92-3.42m0 20.98c2.56 0 4.48-.9 5.78-2.7 1.32-1.83 1.98-4 1.98-6.54s-.66-4.7-1.98-6.51c-1.3-1.82-3.22-2.73-5.78-2.73s-4.5.91-5.81 2.73c-1.3 1.8-1.95 3.97-1.95 6.51s.65 4.71 1.95 6.54c1.31 1.79 3.26 2.7 5.81 2.7M57.97 165.4h8.14c1.47 0 2.67.04 3.62.12.94.08 1.77.35 2.48.79.71.42 1.3 1.03 1.76 1.82.48.78.73 1.7.73 2.77 0 1.17-.3 2.2-.88 3.08-.58.87-1.4 1.51-2.45 1.94 1.38.32 2.44.96 3.17 1.92.73.97 1.1 2.15 1.1 3.55 0 1.76-.6 3.28-1.82 4.56-1.19 1.25-2.85 1.88-4.99 1.88H57.99v-22.42Zm2.98 19.91h7.48c1.3 0 2.32-.36 3.08-1.07.75-.71 1.13-1.69 1.13-2.95 0-1.34-.45-2.29-1.35-2.86-.9-.59-2.07-.88-3.52-.88h-6.82v7.75Zm0-10.27h5.97c1.65 0 2.85-.29 3.61-.88.78-.6 1.16-1.5 1.16-2.7 0-1.4-.42-2.35-1.26-2.83-.83-.47-2.01-.72-3.51-.72h-5.97v7.13ZM79.49 165.4h15.48v2.51h-12.5v7.13h11.65v2.51H82.47v7.76h12.6v2.51H79.49V165.4zM98.68 165.4h10.55c2.11 0 3.78.53 4.99 1.57 1.22 1.04 1.82 2.48 1.82 4.3 0 1.44-.32 2.66-.98 3.64-.63.99-1.6 1.66-2.92 2.04 1.19.26 2.02.78 2.48 1.57.46.78.74 1.77.85 2.98.1 1.19.2 2.35.28 3.46.16 1.24.52 2.19 1.06 2.86h-3.33c-.33-.36-.54-1.25-.6-2.67-.04-1.42-.11-2.38-.21-2.86-.23-1.68-.67-2.77-1.3-3.27-.6-.51-1.42-.78-2.45-.78h-7.29v9.58h-2.98V165.4Zm9.2 10.33c1.61 0 2.88-.29 3.8-.85.92-.56 1.38-1.61 1.38-3.14 0-1.16-.33-2.07-1-2.76-.65-.71-1.64-1.07-2.98-1.07h-7.41v7.82h6.22ZM129.68 164.86c3.4 0 6.03 1.14 7.92 3.42 1.88 2.29 2.82 5.06 2.82 8.33s-.94 6.05-2.82 8.32c-1.89 2.28-4.53 3.43-7.92 3.43s-6.03-1.16-7.91-3.43c-1.89-2.27-2.83-5.06-2.83-8.32s.95-6.04 2.83-8.33c1.88-2.28 4.52-3.42 7.91-3.42m0 20.98c2.56 0 4.48-.9 5.79-2.7 1.32-1.83 1.98-4 1.98-6.54s-.66-4.7-1.98-6.51c-1.3-1.82-3.23-2.73-5.79-2.73s-4.49.91-5.81 2.73c-1.3 1.8-1.95 3.97-1.95 6.51s.65 4.71 1.95 6.54c1.32 1.79 3.26 2.7 5.81 2.7m1.54-25.45h2.82v3.27h-2.82v-3.27Zm-5.9 0h2.82v3.27h-2.82v-3.27ZM157.04 171.97c-.17-1.56-.75-2.71-1.73-3.46-.96-.76-2.24-1.14-3.83-1.14-1.44 0-2.65.31-3.61.91-.94.59-1.41 1.57-1.41 2.92 0 1.21.5 2.03 1.48 2.45.98.4 2.9.92 5.75 1.57 2.85.64 4.74 1.47 5.68 2.52.96 1.04 1.45 2.36 1.45 3.92 0 2.2-.88 3.86-2.64 5-1.76 1.13-3.8 1.71-6.13 1.71-2.7 0-4.92-.67-6.66-1.99-1.74-1.34-2.61-3.32-2.61-5.94h2.82c0 1.78.62 3.14 1.85 4.05 1.26.91 2.82 1.36 4.68 1.36 1.61 0 2.96-.31 4.05-.91 1.08-.62 1.63-1.68 1.63-3.18 0-1.58-.71-2.61-2.13-3.07-1.41-.46-3.32-.96-5.75-1.47-2.41-.53-4.09-1.26-5.06-2.21-.95-.96-1.41-2.16-1.41-3.58 0-2.16.79-3.79 2.36-4.9 1.59-1.11 3.51-1.67 5.77-1.67 2.43 0 4.41.6 5.94 1.79 1.55 1.19 2.33 2.97 2.33 5.31h-2.83ZM169.51 167.91h-7.48v-2.51h17.94v2.51h-7.48v19.91h-2.98v-19.91zM182.45 165.4h15.49v2.51h-12.51v7.13h11.65v2.51h-11.65v7.76h12.6v2.51h-15.58V165.4zM201.64 165.4h10.55c2.11 0 3.78.53 4.99 1.57 1.22 1.04 1.83 2.48 1.83 4.3 0 1.44-.33 2.66-.98 3.64-.62.99-1.6 1.66-2.92 2.04 1.2.26 2.02.78 2.48 1.57.47.78.75 1.77.85 2.98.1 1.19.2 2.35.28 3.46.17 1.24.52 2.19 1.06 2.86h-3.33c-.33-.36-.53-1.25-.59-2.67-.04-1.42-.12-2.38-.22-2.86-.23-1.68-.66-2.77-1.29-3.27-.61-.51-1.42-.78-2.45-.78h-7.29v9.58h-2.98V165.4Zm9.2 10.33c1.61 0 2.88-.29 3.8-.85.92-.56 1.38-1.61 1.38-3.14 0-1.16-.34-2.07-1-2.76-.65-.71-1.65-1.07-2.98-1.07h-7.41v7.82h6.22ZM223.16 165.4h10.56c2.11 0 3.78.53 4.99 1.57 1.22 1.04 1.82 2.48 1.82 4.3 0 1.44-.32 2.66-.97 3.64-.63.99-1.6 1.66-2.92 2.04 1.19.26 2.02.78 2.48 1.57.46.78.74 1.77.85 2.98.1 1.19.2 2.35.29 3.46.16 1.24.52 2.19 1.06 2.86h-3.33c-.33-.36-.53-1.25-.6-2.67-.04-1.42-.11-2.38-.22-2.86-.23-1.68-.66-2.77-1.29-3.27-.61-.51-1.42-.78-2.45-.78h-7.29v9.58h-2.98V165.4Zm9.21 10.33c1.61 0 2.87-.29 3.8-.85.92-.56 1.38-1.61 1.38-3.14 0-1.16-.33-2.07-1-2.76-.65-.71-1.64-1.07-2.98-1.07h-7.42v7.82h6.22ZM244.67 165.4h15.49v2.51h-12.5v7.13h11.65v2.51h-11.65v7.76h12.59v2.51h-15.58V165.4zM263.99 165.39h2.98v22.43h-2.98zM287.77 172.15c-.31-1.55-1.03-2.73-2.17-3.55-1.11-.82-2.48-1.23-4.12-1.23-2.53 0-4.43.87-5.71 2.61-1.25 1.75-1.88 3.91-1.88 6.47 0 2.77.63 5.03 1.88 6.79 1.28 1.73 3.2 2.6 5.75 2.6 1.95 0 3.51-.6 4.68-1.79 1.2-1.22 1.79-2.78 1.79-4.69h2.98c-.29 2.83-1.27 5.04-2.95 6.63-1.67 1.57-3.92 2.36-6.75 2.36-3.35 0-5.92-1.1-7.7-3.28-1.78-2.17-2.67-4.98-2.67-8.42s.94-6.23 2.8-8.45c1.86-2.24 4.47-3.36 7.82-3.36 2.43 0 4.49.64 6.19 1.91 1.69 1.26 2.71 3.05 3.04 5.38h-2.98ZM294.68 165.4h2.98v9.64h11.82v-9.64h2.97v22.42h-2.97v-10.27h-11.82v10.27h-2.98V165.4zM32.07 154.21h283.21v2.2H32.07zM407.45 177.96c0 5.79-2.04 7.75-8.09 7.75h-5.96c-5.9 0-8.09-2.12-8.09-7.8v-28.17h-2.95v28.74c0 3.27.21 5.44 3.07 8.05 1.98 1.81 3.65 2.13 6.43 2.13h9.42c2.45 0 3.9-.31 6.02-2.12 2.61-2.25 3.14-4.75 3.14-8.06v-28.74h-3v28.23ZM436.62 170.67h-16.09v-17.93h16.09c3.15 0 6.33 1.82 6.33 5.31v6.01c0 1.84-.51 3.52-1.42 4.73-1.18 1.57-2.75 1.89-4.91 1.89m-.06-20.95h-18.98v38.92h2.94v-15.04h15.81c6.07 0 9.56-3.46 9.56-9.5v-6.59c0-1.82-.89-3.83-2.31-5.25-1.71-1.76-3.88-2.55-7.03-2.55M470.6 170.67h-16.09v-17.93h16.09c3.15 0 6.33 1.82 6.33 5.31v6.01c0 1.84-.5 3.52-1.42 4.73-1.18 1.57-2.75 1.89-4.9 1.89m-.07-20.95h-18.98v38.92h2.94v-15.04h15.81c6.07 0 9.56-3.46 9.56-9.5v-6.59c0-1.82-.89-3.83-2.31-5.25-1.71-1.76-3.88-2.55-7.03-2.55M485.55 158.89v20.94c0 5.28 3.61 8.82 8.99 8.82h16.48v-2.94h-16.2c-3.84 0-6.33-2.42-6.33-6.16v-8.66h22.53v-3h-22.58v-8.99c0-2 .27-3.32 1.74-4.54 1.2-1.05 2.84-1.62 4.64-1.62h16.2v-3h-16.08c-5.7 0-9.39 3.6-9.39 9.16M522.07 169.65c-.37 0-1 0-1.51.27v-17.19h15.41c4.5 0 6.79 2 6.79 5.93v5.39c0 3.52-2.21 5.54-6.05 5.54-2.44 0-4.88.01-7.32.03-2.44.02-4.88.03-7.32.03m14.75 2.88c5.47 0 8.87-3.32 8.87-8.65v-5.11c0-5.75-3.57-9.05-9.78-9.05h-18.3v38.92h2.94v-15.78c.19.16.4.31.62.47l20.34 15.31h5.02l-21.44-16.12h11.73ZM567.61 174.52l8.24-21.29 8.18 21.29h-16.42Zm8.24-25.25c-.97 0-1.73.6-2.14 1.7l-15.1 37.68h3.43l4.37-11.13h18.9l4.31 11.13h3.49l-15.1-37.66c-.15-.42-.61-1.72-2.15-1.72M621.92 177.96c0 5.79-2.04 7.75-8.09 7.75h-5.96c-5.9 0-8.09-2.12-8.09-7.8v-28.17h-2.94v28.74c0 3.27.21 5.44 3.07 8.05 1.98 1.81 3.65 2.13 6.43 2.13h9.42c2.45 0 3.9-.31 6.03-2.12 2.61-2.25 3.13-4.75 3.13-8.06v-28.74h-3v28.23ZM633.83 152.08c-1.93 1.83-2.72 3.81-2.72 6.86v3.12c0 5.32 3.73 8.37 10.24 8.37h5.79c4.65 0 6.73 1.83 6.73 5.93v3.69c0 1.61-.26 2.93-1.53 4.15-1.5 1.39-3.17 1.5-5.2 1.5h-15.97v2.94h15.91c2.87 0 4.61-.09 6.93-2.06 1.96-1.68 2.8-3.67 2.8-6.65v-3.8c0-5.57-3.53-8.77-9.67-8.77h-7.29c-3.52 0-5.8-2.22-5.8-5.65v-2.89c0-4.11 2.24-6.1 6.84-6.1h16.03v-3h-15.97c-2.88 0-4.8.16-7.12 2.36M661.33 152.73h11.18v35.92h2.94v-35.92h11.18v-3h-25.3v3zM696.21 169.65c-.37 0-1.01 0-1.51.28v-17.19h15.41c4.5 0 6.78 2 6.78 5.93v5.39c0 3.52-2.2 5.54-6.05 5.54-2.44 0-4.88.01-7.32.03-2.44.02-4.87.03-7.32.03m14.77 2.87c5.48 0 8.88-3.32 8.88-8.65v-5.11c0-5.75-3.57-9.05-9.79-9.05h-18.3v38.92h2.95v-15.79c.19.16.4.31.62.48l20.34 15.31h5.02l-21.45-16.12h11.72ZM726.25 149.73h2.94v38.92h-2.94zM742.99 174.52l8.24-21.29 8.19 21.29h-16.43Zm10.39-23.53c-.15-.43-.62-1.72-2.15-1.72-.96 0-1.72.6-2.14 1.7l-15.11 37.68h3.43l4.37-11.13h18.9l4.31 11.13h3.49l-15.09-37.66Z" class="st0"/><path d="M395.35 136.44h-5.11c-1.64 0-2.88-.08-3.98-1.14-.92-.92-1.31-2.05-1.31-3.77v-14.11c0-1.79.4-2.99 1.31-3.89.97-.96 1.99-1.14 3.64-1.14h5.45c1.71 0 2.91.08 3.93 1.14.92.96 1.32 2.12 1.32 3.9v14.24c0 1.65-.41 2.82-1.3 3.67-1.1 1.03-2.38 1.11-3.95 1.11m-.08-26.57h-4.98c-5.09 0-7.78 2.56-7.78 7.41v14.36c0 4.74 2.69 7.24 7.78 7.24h4.98c5.09 0 7.78-2.52 7.78-7.28v-14.32c0-4.84-2.69-7.41-7.78-7.41M407.8 116.07v22.82h2.45v-13.11h16.71v-2.5h-16.71v-6.96c0-2.91 2.51-3.95 4.66-3.95h12.14v-2.5h-12.3c-3.37 0-6.94 2.17-6.94 6.19M441.2 128.18l5.87-15.19 5.84 15.19H441.2Zm5.87-18.63c-.77 0-1.38.48-1.71 1.34l-11.23 28h2.83l3.22-8.21h13.76l3.18 8.21H460l-11.22-27.98c-.32-.9-.9-1.36-1.72-1.36M477.29 125.34h-11.74v-12.96h11.74c2.25 0 4.53 1.3 4.53 3.78v4.44c0 1.33-.36 2.54-1.03 3.4-.84 1.12-1.92 1.34-3.51 1.34m-.03-15.46H463.1v29.01h2.45v-11.1h11.53c4.57 0 7.19-2.61 7.19-7.15v-4.86c0-1.38-.67-2.9-1.74-3.97-1.29-1.33-2.92-1.93-5.29-1.93M502.19 125.34h-11.73v-12.96h11.73c2.25 0 4.53 1.3 4.53 3.78v4.44c0 1.33-.37 2.54-1.03 3.4-.84 1.12-1.92 1.34-3.51 1.34m-.03-15.46H488v29.01h2.45v-11.1h11.53c4.5 0 7.19-2.67 7.19-7.15v-4.86c0-1.38-.67-2.9-1.74-3.97-1.29-1.33-2.92-1.93-5.29-1.93M515.37 131.86v-21.98h-2.45v21.98c0 2.23.2 4.2 2.63 5.81 1.56 1.01 2.97 1.22 4.61 1.22h12.01v-2.45h-12.06c-3.19 0-4.74-1.5-4.74-4.58M535.35 109.89h2.45v29.01h-2.45zM542.54 116.79v15.45c0 3.98 2.72 6.65 6.77 6.65h12.31v-2.45h-12.1c-2.79 0-4.53-1.69-4.53-4.41v-6.24h16.63v-2.5h-16.67v-6.5c0-1.43.2-2.37 1.25-3.24.85-.75 2.04-1.16 3.33-1.16h12.1v-2.5h-12.01c-4.29 0-7.07 2.71-7.07 6.9M568.49 112.38h11.86c1.58 0 2.35.33 3.33 1.41.85.96 1.12 1.7 1.12 3.04v14.83c0 2.9-1.76 4.79-4.49 4.79h-11.82v-24.06Zm11.95-2.49h-14.4v29h14.32c4.2 0 6.9-2.86 6.9-7.28v-14.78c0-1.99-.28-3.3-1.83-4.94-1.46-1.5-2.71-2-4.99-2M600.58 111.66c-1.46 1.37-2.05 2.87-2.05 5.17v2.3c0 4.01 2.8 6.31 7.7 6.31h4.27c3.38 0 4.83 1.27 4.83 4.24v2.72c0 1.18-.18 2.09-1.09 2.96-1.07.99-2.22 1.07-3.74 1.07h-11.93v2.46h11.88c2.15 0 3.46-.07 5.21-1.55 1.46-1.25 2.12-2.8 2.12-5.02v-2.81c0-4.2-2.65-6.61-7.28-6.61h-5.38c-2.52 0-4.14-1.58-4.14-4.03v-2.14c0-2.94 1.6-4.36 4.91-4.36h11.97v-2.5h-11.93c-2.1 0-3.6.12-5.35 1.78M624.16 111.35c-1.47 1.21-2.21 2.93-2.21 5.1v15.49c0 2.23.33 3.74 2.06 5.34 1.51 1.37 2.63 1.61 4.42 1.61h12.64v-2.46H629.4c-1.66 0-2.44-.04-3.62-1.04-1.13-.99-1.37-2.13-1.37-3.53v-15.5c0-1.3.42-2.28 1.33-3.08 1.02-.91 1.75-.91 3.2-.91h12.22v-2.49H628.9c-1.85 0-3.3.24-4.74 1.46M645.15 109.89h2.45v29.01h-2.45zM652.35 116.79v15.45c0 3.98 2.72 6.65 6.78 6.65h12.31v-2.45h-12.1c-2.79 0-4.53-1.69-4.53-4.41v-6.24h16.63v-2.5h-16.67v-6.5c0-1.43.19-2.37 1.25-3.24.85-.75 2.04-1.16 3.33-1.16h12.1v-2.5h-12.01c-4.29 0-7.07 2.71-7.07 6.9M694.48 134.32l-15.45-23.26c-.34-.54-.91-1.42-1.81-1.42-.72 0-1.37.65-1.37 1.37v27.89h2.45v-24.48l15.51 23.34c.33.52.87 1.39 1.8 1.39.88 0 1.33-.66 1.33-1.96v-27.3h-2.46v24.43ZM703.94 111.35c-1.46 1.21-2.21 2.93-2.21 5.1v15.49c0 2.23.33 3.74 2.06 5.34 1.51 1.37 2.63 1.61 4.42 1.61h12.64v-2.46h-11.67c-1.66 0-2.44-.04-3.63-1.04-1.13-.99-1.37-2.13-1.37-3.53v-15.5c0-1.3.43-2.28 1.33-3.08 1.02-.91 1.75-.91 3.21-.91h12.21v-2.49h-12.26c-1.85 0-3.29.24-4.74 1.46M724.23 116.79v15.45c0 3.98 2.72 6.65 6.78 6.65h12.31v-2.45h-12.1c-2.79 0-4.53-1.69-4.53-4.41v-6.24h16.63v-2.5h-16.67v-6.5c0-1.44.2-2.38 1.24-3.24.85-.75 2.04-1.16 3.33-1.16h12.1v-2.5h-12.01c-4.29 0-7.07 2.71-7.07 6.9M754.52 112.38h11.97v-2.5h-11.93c-2.1 0-3.61.12-5.35 1.78-1.46 1.38-2.06 2.87-2.06 5.17v2.3c0 4.01 2.81 6.32 7.7 6.32h4.27c3.38 0 4.83 1.27 4.83 4.24v2.72c0 1.18-.18 2.09-1.08 2.96-1.07.99-2.22 1.07-3.74 1.07H747.2v2.45h11.88c2.16 0 3.46-.07 5.21-1.55 1.46-1.25 2.11-2.8 2.11-5.01v-2.81c0-4.2-2.66-6.61-7.28-6.61h-5.38c-2.52 0-4.14-1.58-4.14-4.03v-2.14c0-2.94 1.6-4.36 4.91-4.36" class="st1"/><path d="M417.83 84.14c0 8.3-2.92 11.1-11.58 11.1h-8.37c-8.44 0-11.58-3.03-11.58-11.18V44.71h-3.7v40.15c0 4.53.28 7.54 4.24 11.16 2.73 2.49 5.04 2.93 8.89 2.93h13.23c3.45 0 5.37-.4 8.32-2.92 3.62-3.13 4.33-6.46 4.33-11.16V44.72h-3.78v39.43ZM467.12 92.32l-30.3-45.61c-.59-.93-1.58-2.49-3.04-2.49-1.1 0-2.13 1.04-2.13 2.13v52.58h3.7v-47.7l30.44 45.81c.6.94 1.51 2.36 2.98 2.36 2.05 0 2.05-2.44 2.05-3.25V44.68h-3.7V92.3ZM480.93 44.7h3.7v54.23h-3.7zM514.68 93.6l-19.32-48.89h-4.03l20.62 51.74.13.35c.38 1.04.95 2.62 2.6 2.62 1.76 0 2.37-1.71 2.81-2.97l20.54-51.75H534l-19.32 48.89ZM543.24 57.36v29.41c0 7.28 4.99 12.17 12.41 12.17h22.94v-3.7h-22.53c-5.53 0-9.11-3.48-9.11-8.87V73.99h31.64v-3.78h-31.72V57.36c0-2.88.4-4.77 2.53-6.53 1.72-1.51 4.09-2.34 6.66-2.34h22.53v-3.78h-22.38c-7.88 0-12.97 4.97-12.97 12.65M591.58 48.49h21.86c6.47 0 9.75 2.88 9.75 8.55v7.57c0 5-3.26 7.99-8.71 7.99-3.43 0-6.86.02-10.28.04-3.43.02-6.85.04-10.28.04-.62 0-1.67 0-2.33.59V48.49Zm23.06 27.81c7.56 0 12.25-4.57 12.25-11.93V57.2c0-8.06-4.8-12.49-13.53-12.49h-25.48v54.23h3.7V76.48c.29.33.64.59 1 .84l28.74 21.62h6.33L597.52 76.3h17.12ZM638.68 47.96c-3.12 2.94-3.75 5.91-3.75 9.48v4.38c0 7.44 5.03 11.54 14.16 11.54h8.13c6.69 0 9.67 2.64 9.67 8.55v5.18c0 2.31-.38 4.22-2.23 5.99-2.16 2.01-4.54 2.17-7.45 2.17H635v3.7h22.13c4.1 0 6.39-.12 9.6-2.84 2.7-2.31 3.85-5.06 3.85-9.17V81.6c0-7.69-4.87-12.09-13.37-12.09h-10.23c-5.08 0-8.36-3.2-8.36-8.15V57.3c0-5.91 3.22-8.79 9.83-8.79h22.29v-3.78h-22.21c-3.99 0-6.65.22-9.85 3.26M679.53 44.7h3.7v54.23h-3.7zM690.41 48.49h15.7v50.45h3.7V48.49h15.71V44.7h-35.11v3.79zM765.53 44.7l-15.71 26.74-15.71-26.74h-4.36l18.18 30.89v23.35h3.78V75.59l18.18-30.89h-4.36z" class="st0"/></svg>