<svg xmlns="http://www.w3.org/2000/svg" id="Layer_1" version="1.1" viewBox="0 0 332.74 215.55"><defs><style>.st0{fill:#010101}</style></defs><rect width="67.15" height="17.91" x="265.59" y="43.28" class="st0" rx="4.55" ry="4.55"/><rect width="53.76" height="18.57" x="265.57" y="73.05" class="st0" rx="4.24" ry="4.24"/><rect width="67.15" height="17.91" x="265.57" y="104.54" class="st0" rx="4.21" ry="4.21"/><rect width="35.15" height="17.91" x="161.49" y="96.71" class="st0" rx="4.21" ry="4.21" transform="rotate(90 179.065 105.665)"/><path d="m203.31 91.3 5.22 4.06a5.638 5.638 0 0 0 7.92-.99l14.51-18.64v41.19a5.65 5.65 0 0 0 5.65 5.65h6.61a5.65 5.65 0 0 0 5.65-5.65V48.46a5.65 5.65 0 0 0-5.65-5.65h-6.61c-2.01 0-3.76 1.06-4.76 2.64l-21.66 27.83-27.95-27.95a5.643 5.643 0 0 0-7.99 0l-4.68 4.68a5.643 5.643 0 0 0 0 7.99l33.74 33.32Z" class="st0"/><rect width="35.15" height="17.91" x="181.29" y="187.55" class="st0" rx="4.21" ry="4.21" transform="rotate(90 198.865 196.505)"/><path d="m223.11 182.15 5.22 4.06a5.638 5.638 0 0 0 7.92-.99l14.51-18.64v41.19a5.65 5.65 0 0 0 5.65 5.65h6.61a5.65 5.65 0 0 0 5.65-5.65V139.3a5.65 5.65 0 0 0-5.65-5.65h-6.61c-2.01 0-3.76 1.06-4.76 2.64l-21.66 27.83-27.95-27.95a5.643 5.643 0 0 0-7.99 0l-4.68 4.68a5.643 5.643 0 0 0 0 7.99l33.74 33.32ZM60.93 116.66c.93.87 2.38.92 3.36.1 8-6.73 8.42-15.79 9.18-17.56.85-1.99.92-10.83.88-16.1a2.704 2.704 0 0 0-2.67-2.68l-31.48-.39a2.448 2.448 0 0 0-2.48 2.45v9.25c0 2.09 1.69 3.78 3.78 3.78h14.73c.22 0 .39.19.36.41-.19 1.25-1.06 5.15-4.87 8.16-1.21.95-1.26 2.76-.14 3.81l9.38 8.78Z" class="st0"/><path d="M36.29 109.76c-.06-2.32-1.64-4.4-3.91-4.89-14.56-3.13-16.15-22.18-13.87-32.45 2.47-11.1 11.55-13.34 16.85-13.97 12.4-1.48 17.15 2.99 18.83 5.62.7 1.1 1.9 1.78 3.2 1.78h9.66c2.53 0 4.35-2.43 3.62-4.85-2.06-6.92-9.38-18.75-35.32-18.16C13.98 43.31-.4 61.74 0 80.65c.38 17.51 7.11 37.77 30.63 40.73 3.13.39 5.89-2.11 5.81-5.26l-.16-6.35Z" class="st0"/><rect width="31.88" height="17.91" x="71.66" y="143.41" class="st0" rx="4.21" ry="4.21" transform="rotate(90 87.6 152.36)"/><path d="m91.56 179.73-8.21.03c-2.25 0-4.15 1.66-4.42 3.9-.53 4.44.52 13.21-4.81 14.26-.37.07-1.88.63-3.73.72H69.1c-1.85-.1-3.4-.54-3.73-.72-4.67-2.57-4.28-9.83-4.81-14.26a4.443 4.443 0 0 0-4.42-3.9l-7.21-.03c-2.46 0-4.48 2-4.46 4.46.08 9.52-1.12 31.34 24.1 31.36h2.32c25.22-.02 25.02-21.84 25.1-31.36.02-2.46-1.99-4.46-4.46-4.46ZM53.74.63h4.75v9.49h8.21V.63h4.73v25.16H66.7V14.76h-8.21v11.03h-4.75V.63ZM85.25.63H90l9.46 25.16h-4.87l-1.92-5.18H82.63l-2 5.18h-4.87L85.25.63Zm2.41 6.67-3.3 8.64h6.58L87.66 7.3ZM126.49 4.74l-3.3 3.34c-2.09-2.26-4.52-3.39-7.3-3.39-2.42 0-4.45.82-6.09 2.46-1.63 1.64-2.45 3.64-2.45 5.99s.85 4.49 2.54 6.18c1.7 1.69 3.79 2.53 6.28 2.53 1.62 0 2.98-.35 4.09-1.04 1.11-.7 2.01-1.79 2.69-3.27h-7.12v-4.5h12.38l.03 1.06c0 2.2-.56 4.29-1.67 6.26-1.12 1.97-2.56 3.48-4.33 4.52-1.77 1.04-3.85 1.56-6.24 1.56-2.55 0-4.83-.57-6.83-1.7s-3.58-2.75-4.75-4.85-1.75-4.36-1.75-6.79c0-3.33 1.08-6.23 3.23-8.69 2.55-2.93 5.88-4.4 9.97-4.4 2.14 0 4.14.4 6 1.21 1.57.68 3.11 1.86 4.62 3.52ZM133.24.63h13.43v4.69h-8.78v4.55h8.78v4.6h-8.78v6.62h8.78v4.71h-13.43V.63ZM151.74.63h4.49l10.53 16.56V.63h4.68v25.16h-4.5L156.42 9.28v16.51h-4.68V.63ZM177.75 25.8V.63h3.87c2.24 0 3.88.15 4.92.44 1.47.4 2.65 1.14 3.52 2.22.87 1.08 1.31 2.36 1.31 3.83 0 .96-.2 1.83-.59 2.61-.4.78-1.04 1.51-1.93 2.2 1.49.72 2.59 1.62 3.28 2.69.69 1.08 1.04 2.35 1.04 3.82s-.36 2.7-1.07 3.87-1.64 2.03-2.76 2.61c-1.13.58-2.68.86-4.67.86h-6.9Zm4.68-20.6v5.3h1.02c1.14 0 1.99-.25 2.54-.74s.83-1.16.83-2c0-.79-.26-1.41-.79-1.87s-1.33-.69-2.4-.69h-1.21Zm0 9.58v6.45h1.17c1.95 0 3.26-.25 3.93-.75s1.01-1.23 1.01-2.19c0-1.08-.4-1.94-1.19-2.57s-2.11-.94-3.96-.94h-.97ZM198.32.63h13.43v4.69h-8.78v4.55h8.78v4.6h-8.78v6.62h8.78v4.71h-13.43V.63ZM217.12.63h4.96c2.72 0 4.65.25 5.81.74 1.15.5 2.08 1.32 2.78 2.47.7 1.15 1.05 2.51 1.05 4.09 0 1.65-.39 3.04-1.16 4.15-.77 1.11-1.94 1.95-3.5 2.52l5.83 11.19h-5.12l-5.53-10.66h-.43v10.66h-4.68V.63Zm4.69 9.84h1.47c1.49 0 2.51-.2 3.08-.6s.84-1.06.84-1.99c0-.55-.14-1.03-.42-1.43s-.65-.7-1.12-.88c-.47-.18-1.32-.27-2.57-.27h-1.28v5.17ZM260.08 4.74l-3.3 3.34c-2.09-2.26-4.52-3.39-7.3-3.39-2.42 0-4.45.82-6.09 2.46-1.63 1.64-2.45 3.64-2.45 5.99s.85 4.49 2.54 6.18c1.7 1.69 3.79 2.53 6.28 2.53 1.62 0 2.98-.35 4.09-1.04 1.11-.7 2.01-1.79 2.69-3.27h-7.12v-4.5h12.38l.03 1.06c0 2.2-.56 4.29-1.67 6.26-1.12 1.97-2.56 3.48-4.33 4.52-1.77 1.04-3.85 1.56-6.24 1.56-2.55 0-4.83-.57-6.83-1.7s-3.58-2.75-4.75-4.85-1.75-4.36-1.75-6.79c0-3.33 1.08-6.23 3.23-8.69 2.55-2.93 5.88-4.4 9.97-4.4 2.14 0 4.14.4 6 1.21 1.57.68 3.11 1.86 4.62 3.52ZM157.33 116.92l-27.17-64.25c-.09-.22-.21-.42-.34-.62-.31-.71-1.94-4.4-3.4-7.03-.92-1.66-2.8-2.67-4.81-2.63l-3.12.07c-2.63-.13-5.43 3.86-6.47 6.18l-30.56 67.65c-1.03 2.32.15 4.99 2.65 5.95l8.74.37c2.85.26 5.36-.14 6.39-2.46l6.61-16.19h12.48c2.34 0 4.24-1.9 4.24-4.24v-7.4c0-2.34-1.9-4.24-4.24-4.24h-6l8.33-20.39 18.7 52.72c.98 2.34 3.04 2.68 6.33 2.6l8.82-.18c2.52-.91 3.77-3.54 2.79-5.89ZM179.41 209.02l-27.17-64.25c-.09-.22-.21-.42-.34-.62-.31-.71-1.94-4.4-3.4-7.03-.92-1.66-2.8-2.67-4.81-2.63l-3.12.07c-2.63-.13-5.43 3.86-6.47 6.18l-30.56 67.65c-1.03 2.32.15 4.99 2.65 5.95l8.74.37c2.85.26 5.36-.14 6.39-2.46l6.61-16.19h12.48c2.34 0 4.24-1.9 4.24-4.24v-7.4c0-2.34-1.9-4.24-4.24-4.24h-6l8.33-20.39 18.7 52.72c.98 2.34 3.04 2.68 6.33 2.6l8.82-.18c2.52-.91 3.77-3.54 2.79-5.89Z" class="st0"/></svg>